<svg width="363" height="231" viewBox="0 0 363 231" fill="none" xmlns="http://www.w3.org/2000/svg">
<path d="M221.05 6.88504C222.104 7.64424 223.158 8.40345 224.244 9.18566C229.607 12.4404 235.604 12.1678 241.713 12.3698C245.787 12.5385 249.861 12.7073 254.059 12.8811C253.773 27.3341 253.487 41.787 253.193 56.6779C247.215 56.3282 247.215 56.3282 241.118 55.9715C230.128 55.556 224.27 56.4512 215.657 63.4158C211.836 65.2566 209.308 65.6507 205.141 64.9443C204.299 64.8092 203.457 64.6741 202.59 64.5349C201.96 64.4205 201.33 64.3061 200.681 64.1882C199.9 65.5241 199.9 65.5241 199.104 66.887C198.416 68.0443 197.728 69.2016 197.018 70.394C196.339 71.5459 195.659 72.6979 194.958 73.8847C192.95 76.8589 192.95 76.8589 189.703 78.9319C185.562 78.485 182.526 76.9052 178.977 74.8C177.932 74.1842 176.887 73.5683 175.81 72.9338C174.695 72.2658 173.579 71.5977 172.43 70.9094C171.272 70.2233 170.115 69.5373 168.923 68.8304C157.653 62.1293 146.404 55.3805 135.275 48.4465C133.557 47.3842 131.823 46.3455 130.074 45.335C129.307 44.8774 128.541 44.4199 127.751 43.9485C127.083 43.5635 126.415 43.1784 125.727 42.7817C123.453 40.5898 123.3 39.0698 123.23 35.9404C124.455 32.9904 124.455 32.9904 126.331 29.8237C127.008 28.6731 127.685 27.5225 128.383 26.337C129.105 25.1459 129.827 23.9548 130.571 22.7277C131.268 21.5361 131.965 20.3446 132.683 19.1169C136.048 13.4694 139.079 8.57554 144.16 4.29545C150.185 4.13314 155.025 7.93411 159.921 11.0858C160.748 11.607 161.576 12.1283 162.428 12.6653C164.457 13.9453 166.479 15.2342 168.496 16.5318C168.988 16.119 169.479 15.7061 169.986 15.2808C173.566 12.2992 177.116 9.41615 181.043 6.89513C182.184 6.14904 182.184 6.14904 183.348 5.38787C194.905 -0.807252 209.761 0.949771 221.05 6.88504ZM174.884 17.7268C174.943 19.7612 174.943 19.7612 175.868 22.0208C178.368 23.9984 178.368 23.9984 181.556 25.7107C182.72 26.3805 183.885 27.0503 185.085 27.7403C186.312 28.4279 187.54 29.1155 188.804 29.8239C191.21 31.1971 193.615 32.5707 196.02 33.9447C197.092 34.5487 198.165 35.1527 199.27 35.775C207.434 40.4683 207.434 40.4683 208.377 43.1682C208.457 44.1285 208.457 44.1285 208.539 45.1083C201.996 42.871 196.383 39.6357 190.665 35.7841C187.495 33.7616 185.534 32.8921 181.739 32.9067C178.518 33.6138 178.518 33.6138 176.64 36.9969C176.769 40.0427 176.986 41.7259 179.141 43.9382C179.849 44.3889 180.556 44.8395 181.285 45.3039C182.132 45.8441 182.98 46.3843 183.853 46.9409C184.921 47.6067 185.99 48.2725 187.09 48.9585C188.532 49.9255 189.972 50.8947 191.411 51.8659C192.98 52.8949 194.551 53.9223 196.122 54.9479C196.868 55.456 197.614 55.9642 198.383 56.4878C202.16 58.8915 204.975 60.3916 209.524 60.0803C213.533 59.118 215.969 58.0685 219.283 55.6732C220.161 55.0555 221.038 54.4378 221.942 53.8014C226.952 50.1051 226.952 50.1051 229.557 44.6631C231.328 30.2968 231.328 30.2968 228.196 16.6462C224.734 12.9715 220.357 11.4631 215.645 9.98403C214.663 9.57888 213.681 9.17374 212.668 8.75632C198.76 3.40894 185.219 7.32546 174.884 17.7268ZM145.122 9.65764C143.33 11.9461 143.33 11.9461 141.614 14.7978C141.007 15.7529 140.4 16.7079 139.775 17.6918C139.355 18.5238 137.824 21.4711 137.391 22.3283C137.73 23.0403 138.068 23.7523 138.417 24.4858C138.786 23.6556 140.266 20.7101 140.646 19.8547C143.079 16.7895 145.009 15.6709 148.867 14.9329C153.428 15.2761 156.859 17.8706 160.598 20.3454C161.407 20.8146 162.216 21.2838 163.049 21.7672C163.761 21.4286 164.473 21.0901 165.207 20.7413C162.265 18.8944 159.316 17.0579 156.366 15.2232C155.528 14.697 154.69 14.1707 153.827 13.6285C153.024 13.1305 152.221 12.6324 151.394 12.1193C150.653 11.657 149.912 11.1946 149.149 10.7183C147.303 9.53806 147.303 9.53806 145.122 9.65764ZM234.747 16.7737C234.516 28.4065 234.286 40.0393 234.049 52.0247C238.632 52.1153 243.214 52.206 247.936 52.2994C248.166 40.6665 248.396 29.0337 248.633 17.0483C244.051 16.9577 239.468 16.867 234.747 16.7737ZM143.779 23.5233C140.494 27.2473 139.307 29.8429 139.548 34.8606C141.958 39.6501 144.957 40.9515 149.808 42.8779C149.925 42.2479 150.043 41.618 150.163 40.9689C151.3 35.5492 152.472 32.0522 156.513 28.0497C157.143 27.423 157.772 26.7963 158.421 26.1505C158.87 25.7407 159.319 25.3308 159.781 24.9085C158.628 24.1803 157.474 23.4522 156.285 22.702C155.636 22.2925 154.987 21.8829 154.319 21.4609C150.056 19.3117 147.36 20.926 143.779 23.5233ZM165.186 21.8095C165.524 22.5215 165.863 23.2335 166.212 23.967C167.276 23.6354 168.341 23.3038 169.438 22.9622C168.035 22.5818 166.631 22.2014 165.186 21.8095ZM137.391 22.3283C135.622 24.8325 135.622 24.8325 134.081 27.606C134.419 28.318 134.758 29.03 135.107 29.7635C136.876 27.2593 136.876 27.2593 138.417 24.4858C138.079 23.7739 137.74 23.0619 137.391 22.3283ZM157.476 33.4119C154.523 37.6569 154.458 41.1195 155.086 46.1882C157.196 49.8943 159.338 52.5942 163.484 53.8347C168.586 53.9251 172.514 53.3828 176.387 49.8154C176.069 49.148 175.752 48.4805 175.425 47.7927C173.121 42.9481 173.417 39.6599 173.763 34.3018C173.69 33.4077 173.617 32.5136 173.541 31.5924C167.407 27.325 163.116 29.1049 157.476 33.4119ZM132.97 29.7213C131.505 32.5135 130.039 35.3056 128.529 38.1825C131.033 39.9515 131.033 39.9515 133.806 41.4927C134.518 41.1542 135.23 40.8156 135.964 40.4668C135.328 36.9277 134.693 33.3887 134.039 29.7424C133.686 29.7354 133.334 29.7284 132.97 29.7213ZM133.806 41.4927C133.806 41.4927 138.016 43.6919 139.084 44.803C139.796 44.4645 140.508 44.1259 141.241 43.7771C138.619 42.6673 133.806 41.4927 133.806 41.4927ZM143.336 45.9558C144.372 47.0342 145.409 48.1127 146.477 49.2238C147.189 48.8852 147.901 48.5467 148.634 48.1978C146.012 47.088 146.012 47.088 143.336 45.9558ZM150.729 50.3765C151.42 51.0955 152.111 51.8145 152.823 52.5552C152.837 51.8502 152.851 51.1452 152.865 50.4188C152.16 50.4048 151.455 50.3909 150.729 50.3765ZM177.851 53.451C175.212 55.9252 175.212 55.9252 174.081 58.3189C179.349 62.0937 179.349 62.0937 185.686 62.5558C186.771 62.3128 187.855 62.0697 188.973 61.8194C189.713 60.0708 190.453 58.3221 191.215 56.5206C189.857 55.5973 188.494 54.6812 187.129 53.7681C185.991 53.0018 185.991 53.0018 184.83 52.2199C181.346 50.1692 180.955 50.6866 177.851 53.451ZM163.399 58.1076C165.669 60.8245 167.312 61.8571 170.792 62.5284C168.522 59.8115 166.88 58.7788 163.399 58.1076ZM195.424 59.8097C194.809 60.8334 194.194 61.8572 193.56 62.9119C191.025 66.1345 191.025 66.1345 188.27 66.9482C186.98 67.0219 186.98 67.0219 185.663 67.097C184.598 67.4286 183.534 67.7602 182.437 68.1019C180.109 67.5883 180.109 67.5883 178.185 66.9491C180.661 69.7967 183.259 71.7714 186.604 73.5274C190.67 72.2608 191.205 70.878 193.406 67.317C194.003 66.3714 194.6 65.4258 195.216 64.4516C195.623 63.6318 196.031 62.8119 196.45 61.9673C196.112 61.2553 195.773 60.5433 195.424 59.8097ZM170.792 62.5284C173.062 65.2452 174.705 66.2779 178.185 66.9491C175.915 64.2322 174.273 63.1996 170.792 62.5284Z" fill="white"/>
<path d="M119.521 61.3804C121.537 61.4161 121.537 61.4161 123.593 61.4526C126.995 61.6618 126.995 61.6618 129.111 62.7723C129.09 63.8298 129.069 64.8874 129.047 65.9769C130.042 65.7466 130.042 65.7466 131.056 65.5116C151.965 61.1395 168.339 75.4682 185.26 86.115C188.294 88.1858 188.294 88.1858 191.786 88.1233C192.711 87.8674 193.635 87.6115 194.587 87.3478C195.608 87.0753 196.629 86.8027 197.68 86.5219C199.819 85.9355 201.957 85.3461 204.094 84.7536C210.178 83.1348 215.395 82.0532 221.686 82.7703C224.378 85.0944 224.378 85.0944 225.853 88.1958C226.057 91.4058 226.057 91.4058 224.658 94.584C217.455 99.399 209.604 102.941 201.779 106.621C200.525 107.217 199.271 107.813 197.98 108.426C178.843 117.478 178.843 117.478 167.214 113.727C163.337 112.167 159.525 110.506 155.718 108.782C153.135 107.63 150.546 106.493 147.954 105.36C146.825 104.851 145.695 104.342 144.532 103.817C139.23 101.832 133.991 101.169 128.35 101.228C128.355 102.088 128.36 102.947 128.365 103.833C128.244 106.569 128.244 106.569 127.155 107.616C124.293 107.666 121.466 107.652 118.607 107.581C117.404 107.563 117.404 107.563 116.178 107.545C110.196 107.416 110.196 107.416 109.017 106.189C108.986 102.95 109.021 99.7378 109.104 96.5018C109.124 95.5312 109.145 94.5606 109.167 93.5606C109.234 90.4477 109.309 87.335 109.384 84.2222C109.431 82.1172 109.478 80.0122 109.524 77.9071C109.638 72.7353 109.759 67.5636 109.883 62.392C113.089 60.8672 115.992 61.3033 119.521 61.3804ZM115.139 66.7705C114.909 78.4033 114.679 90.0361 114.442 102.021C117.262 102.077 120.082 102.133 122.988 102.191C123.218 90.5577 123.448 78.9249 123.685 66.9395C120.865 66.8837 118.045 66.8279 115.139 66.7705ZM128.942 71.318C128.781 79.4257 128.621 87.5335 128.456 95.8869C130.428 95.981 132.4 96.0751 134.432 96.1721C142.916 96.9944 149.912 99.9365 157.627 103.41C160.204 104.55 162.787 105.677 165.37 106.803C166.492 107.305 167.614 107.807 168.769 108.324C174.021 110.353 177.929 111.447 183.226 109.226C184.153 108.844 185.079 108.461 186.034 108.067C187.063 107.618 188.093 107.168 189.154 106.705C190.915 105.953 190.915 105.953 192.711 105.185C195.914 103.797 199.103 102.382 202.284 100.942C203.605 100.347 204.928 99.7577 206.254 99.1744C208.196 98.32 210.129 97.4464 212.062 96.5723C213.202 96.0624 214.342 95.5525 215.516 95.0272C218.408 93.3072 219.322 92.2583 220.491 89.1584C217.867 87.3726 216.605 86.9009 213.402 87.2402C209.899 88.1237 206.4 89.0128 202.91 89.9461C201.694 90.2437 200.478 90.5413 199.225 90.8479C192.149 92.6071 192.149 92.6071 186.373 96.828C185.577 97.5851 184.781 98.3421 183.96 99.1221C177.802 98.9558 172.311 97.0297 166.544 94.9706C161.542 93.0124 161.542 93.0124 156.314 92.1634C156.342 90.7534 156.369 89.3434 156.398 87.8906C157.046 88.1032 157.693 88.3159 158.361 88.535C161.309 89.495 164.262 90.4363 167.216 91.3773C168.235 91.7122 169.254 92.0471 170.304 92.3922C171.293 92.7045 172.282 93.0168 173.301 93.3385C174.661 93.7767 174.661 93.7767 176.048 94.2238C179.021 94.8057 181.142 94.4912 184.066 93.781C182.707 89.418 180.841 88.962 176.909 86.7268C175.98 86.1929 175.98 86.1929 175.033 85.6483C173.049 84.5107 171.058 83.3869 169.066 82.2637C167.091 81.1378 165.118 80.0091 163.145 78.88C161.345 77.8521 159.542 76.8306 157.738 75.8094C155.677 74.62 153.64 73.389 151.634 72.1084C149.04 70.5173 147.208 70.0329 144.202 69.683C143.372 69.5715 142.542 69.46 141.687 69.3452C137.461 69.2841 137.461 69.2841 128.942 71.318Z" fill="#A2DB2F"/>
<path d="M4.73297 181.216C2.27624 181.216 0.284668 179.225 0.284668 176.768V139.534C0.284668 137.077 2.27624 135.086 4.73297 135.086C7.18969 135.086 9.18126 137.077 9.18126 139.534V176.768C9.18126 179.225 7.18969 181.216 4.73297 181.216Z" fill="#A2DB2F"/>
<path d="M22.7465 181.216C20.2898 181.216 18.2982 179.225 18.2982 176.768V151.571C18.2982 149.273 20.1617 147.409 22.4604 147.409H24.9767C25.6413 147.409 26.2016 147.904 26.283 148.564C26.4411 149.845 28.4286 150.309 29.4126 149.474C29.9043 149.056 30.4391 148.676 31.017 148.332C32.9062 147.189 35.1468 146.618 37.7389 146.618C40.4628 146.618 42.7693 147.189 44.6585 148.332C46.5476 149.43 47.9975 151.056 49.0079 153.208C50.0184 155.317 50.5237 157.931 50.5237 161.051V176.768C50.5237 179.225 48.5321 181.216 46.0754 181.216C43.6186 181.216 41.6271 179.225 41.6271 176.768V161.841C41.6271 159.381 41.0559 157.492 39.9136 156.174C38.7714 154.812 37.0579 154.131 34.7734 154.131C33.3675 154.131 32.0715 154.46 30.8852 155.119C29.743 155.778 28.8423 156.723 28.1833 157.953C27.5243 159.183 27.1948 160.699 27.1948 162.5V176.768C27.1948 179.225 25.2032 181.216 22.7465 181.216Z" fill="#A2DB2F"/>
<path d="M73.6625 182.007C70.6311 182.007 67.9292 181.26 65.5567 179.766C63.2282 178.229 61.405 176.142 60.087 173.506C58.769 170.87 58.11 167.86 58.11 164.477C58.11 161.007 58.7909 157.931 60.1529 155.251C61.5148 152.571 63.404 150.462 65.8203 148.925C68.2367 147.387 70.9826 146.618 74.0579 146.618C76.3864 146.618 78.4293 147.058 80.1867 147.936C81.7274 148.688 84.4702 147.619 84.4702 145.904V137.918C84.4702 135.626 86.3285 133.768 88.6208 133.768H88.9185C91.3753 133.768 93.3668 135.759 93.3668 138.216V176.843C93.3668 179.258 91.409 181.216 88.9939 181.216H86.6724C85.9645 181.216 85.3528 180.722 85.2045 180.029C84.9279 178.739 83.133 178.338 82.1417 179.209C82.1053 179.241 82.0687 179.273 82.0319 179.305C81.0654 180.14 79.9011 180.799 78.5392 181.282C77.1772 181.765 75.5517 182.007 73.6625 182.007ZM75.9031 174.231C77.6605 174.231 79.1982 173.835 80.5162 173.044C81.8342 172.21 82.8666 171.045 83.6135 169.552C84.3604 168.058 84.7338 166.323 84.7338 164.346C84.7338 162.325 84.3604 160.567 83.6135 159.073C82.8666 157.58 81.8342 156.437 80.5162 155.647C79.1982 154.812 77.6605 154.395 75.9031 154.395C74.2337 154.395 72.7179 154.812 71.356 155.647C70.038 156.437 69.0055 157.58 68.2587 159.073C67.5118 160.567 67.1383 162.303 67.1383 164.28C67.1383 166.257 67.5118 168.014 68.2587 169.552C69.0055 171.045 70.038 172.21 71.356 173.044C72.7179 173.835 74.2337 174.231 75.9031 174.231Z" fill="#A2DB2F"/>
<path d="M106.865 181.216C104.408 181.216 102.416 179.225 102.416 176.768V151.857C102.416 149.401 104.408 147.409 106.865 147.409C109.321 147.409 111.313 149.401 111.313 151.857V176.768C111.313 179.225 109.321 181.216 106.865 181.216ZM106.898 143.06C105.316 143.06 103.998 142.598 102.944 141.676C101.933 140.709 101.428 139.501 101.428 138.051C101.428 136.601 101.933 135.415 102.944 134.493C103.998 133.526 105.316 133.043 106.898 133.043C108.523 133.043 109.841 133.526 110.852 134.493C111.906 135.415 112.433 136.601 112.433 138.051C112.433 139.501 111.906 140.709 110.852 141.676C109.841 142.598 108.523 143.06 106.898 143.06Z" fill="#A2DB2F"/>
<path d="M131.569 182.007C128.889 182.007 126.648 181.546 124.847 180.623C123.045 179.7 121.705 178.47 120.827 176.933C119.948 175.351 119.509 173.638 119.509 171.792C119.509 169.727 120.036 167.926 121.09 166.388C122.145 164.851 123.704 163.643 125.769 162.764C127.878 161.885 130.492 161.446 133.612 161.446H137.438C139.801 161.446 141.925 159.452 141.124 157.228C140.773 156.086 140.136 155.251 139.213 154.724C138.291 154.153 137.038 153.867 135.457 153.867C133.831 153.867 132.469 154.219 131.371 154.922C131.287 154.976 131.205 155.031 131.126 155.089C129.422 156.331 127.76 158.085 125.651 158.085C122.974 158.085 120.805 155.66 122.101 153.317C122.35 152.868 122.628 152.436 122.936 152.022C124.254 150.309 125.989 148.991 128.142 148.068C130.295 147.102 132.755 146.618 135.523 146.618C138.642 146.618 141.344 147.145 143.628 148.2C145.913 149.254 147.648 150.77 148.835 152.747C150.021 154.724 150.614 157.162 150.614 160.062V177.133C150.614 179.388 148.786 181.216 146.531 181.216H144.387C143.679 181.216 143.069 180.714 142.934 180.019L142.747 179.059C142.55 178.049 141.105 177.765 140.399 178.514C139.74 179.217 138.971 179.832 138.093 180.359C137.258 180.887 136.292 181.282 135.193 181.546C134.095 181.853 132.887 182.007 131.569 182.007ZM133.677 175.153C134.776 175.153 135.764 174.956 136.643 174.56C137.566 174.121 138.356 173.528 139.015 172.781C139.674 172.034 140.202 171.177 140.597 170.211C140.992 169.2 141.256 168.146 141.388 167.047C141.388 166.938 141.299 166.85 141.19 166.85H134.666C133.348 166.85 132.25 167.026 131.371 167.377C130.536 167.728 129.921 168.234 129.526 168.893C129.13 169.508 128.933 170.211 128.933 171.002C128.933 171.88 129.13 172.627 129.526 173.242C129.921 173.857 130.47 174.34 131.173 174.692C131.92 174.999 132.755 175.153 133.677 175.153Z" fill="#A2DB2F"/>
<path d="M163.751 181.216C161.294 181.216 159.303 179.225 159.303 176.768V151.571C159.303 149.273 161.166 147.409 163.465 147.409H165.981C166.646 147.409 167.206 147.904 167.287 148.564C167.445 149.845 169.433 150.309 170.417 149.474C170.909 149.056 171.443 148.676 172.021 148.332C173.911 147.189 176.151 146.618 178.743 146.618C181.467 146.618 183.774 147.189 185.663 148.332C187.552 149.43 189.002 151.056 190.012 153.208C191.023 155.317 191.528 157.931 191.528 161.051V176.768C191.528 179.225 189.536 181.216 187.08 181.216C184.623 181.216 182.631 179.225 182.631 176.768V161.841C182.631 159.381 182.06 157.492 180.918 156.174C179.776 154.812 178.062 154.131 175.778 154.131C174.372 154.131 173.076 154.46 171.89 155.119C170.747 155.778 169.847 156.723 169.188 157.953C168.529 159.183 168.199 160.699 168.199 162.5V176.768C168.199 179.225 166.208 181.216 163.751 181.216Z" fill="#A2DB2F"/>
<path d="M230.635 181.216C222.591 181.216 216.071 174.696 216.071 166.652V139.534C216.071 137.077 218.062 135.086 220.519 135.086C222.976 135.086 224.967 137.077 224.967 139.534V164.181C224.967 169.768 229.496 174.297 235.083 174.297H241.739C243.65 174.297 245.199 175.846 245.199 177.756C245.199 179.667 243.65 181.216 241.739 181.216H230.635Z" fill="#A2DB2F"/>
<path d="M266.952 182.007C263.745 182.007 260.867 181.26 258.319 179.766C255.815 178.273 253.838 176.186 252.388 173.506C250.938 170.826 250.213 167.772 250.213 164.346C250.213 160.831 250.938 157.755 252.388 155.119C253.838 152.439 255.837 150.353 258.385 148.859C260.933 147.365 263.811 146.618 267.018 146.618C270.269 146.618 273.146 147.365 275.651 148.859C278.199 150.353 280.198 152.439 281.648 155.119C283.098 157.755 283.822 160.831 283.822 164.346C283.822 167.816 283.098 170.892 281.648 173.572C280.198 176.208 278.199 178.273 275.651 179.766C273.146 181.26 270.247 182.007 266.952 182.007ZM266.952 174.297C268.49 174.297 269.829 173.923 270.972 173.176C272.158 172.429 273.081 171.331 273.74 169.881C274.399 168.387 274.728 166.542 274.728 164.346C274.728 162.105 274.399 160.26 273.74 158.81C273.081 157.316 272.18 156.196 271.038 155.449C269.895 154.702 268.555 154.329 267.018 154.329C265.568 154.329 264.25 154.702 263.064 155.449C261.921 156.196 260.999 157.316 260.296 158.81C259.637 160.26 259.307 162.105 259.307 164.346C259.307 166.542 259.637 168.387 260.296 169.881C260.955 171.331 261.856 172.429 262.998 173.176C264.184 173.923 265.502 174.297 266.952 174.297Z" fill="#A2DB2F"/>
<path d="M302.756 182.007C300.076 182.007 297.835 181.546 296.034 180.623C294.233 179.7 292.893 178.47 292.014 176.933C291.135 175.351 290.696 173.638 290.696 171.792C290.696 169.727 291.223 167.926 292.278 166.388C293.332 164.851 294.892 163.643 296.957 162.764C299.066 161.885 301.68 161.446 304.799 161.446H308.625C310.989 161.446 313.112 159.452 312.312 157.228C311.96 156.086 311.323 155.251 310.4 154.724C309.478 154.153 308.226 153.867 306.644 153.867C305.019 153.867 303.657 154.219 302.558 154.922C302.474 154.976 302.393 155.031 302.313 155.089C300.61 156.331 298.947 158.085 296.839 158.085C294.161 158.085 291.992 155.66 293.288 153.317C293.537 152.868 293.815 152.436 294.123 152.022C295.441 150.309 297.176 148.991 299.329 148.068C301.482 147.102 303.942 146.618 306.71 146.618C309.829 146.618 312.531 147.145 314.816 148.2C317.1 149.254 318.836 150.77 320.022 152.747C321.208 154.724 321.801 157.162 321.801 160.062V177.133C321.801 179.388 319.973 181.216 317.719 181.216H315.574C314.866 181.216 314.257 180.714 314.121 180.019L313.934 179.059C313.737 178.049 312.292 177.765 311.587 178.514C310.928 179.217 310.159 179.832 309.28 180.359C308.445 180.887 307.479 181.282 306.381 181.546C305.282 181.853 304.074 182.007 302.756 182.007ZM304.865 175.153C305.963 175.153 306.952 174.956 307.83 174.56C308.753 174.121 309.544 173.528 310.203 172.781C310.862 172.034 311.389 171.177 311.784 170.211C312.18 169.2 312.443 168.146 312.575 167.047C312.575 166.938 312.487 166.85 312.377 166.85H305.853C304.535 166.85 303.437 167.026 302.558 167.377C301.724 167.728 301.108 168.234 300.713 168.893C300.318 169.508 300.12 170.211 300.12 171.002C300.12 171.88 300.318 172.627 300.713 173.242C301.108 173.857 301.658 174.34 302.361 174.692C303.107 174.999 303.942 175.153 304.865 175.153Z" fill="#A2DB2F"/>
<path d="M334.938 181.216C332.481 181.216 330.49 179.225 330.49 176.768V151.571C330.49 149.273 332.353 147.409 334.652 147.409H337.168C337.833 147.409 338.393 147.904 338.475 148.564C338.633 149.845 340.62 150.309 341.604 149.474C342.096 149.056 342.631 148.676 343.209 148.332C345.098 147.189 347.338 146.618 349.931 146.618C352.654 146.618 354.961 147.189 356.85 148.332C358.739 149.43 360.189 151.056 361.2 153.208C362.21 155.317 362.715 157.931 362.715 161.051V176.768C362.715 179.225 360.724 181.216 358.267 181.216C355.81 181.216 353.819 179.225 353.819 176.768V161.841C353.819 159.381 353.248 157.492 352.105 156.174C350.963 154.812 349.25 154.131 346.965 154.131C345.559 154.131 344.263 154.46 343.077 155.119C341.935 155.778 341.034 156.723 340.375 157.953C339.716 159.183 339.386 160.699 339.386 162.5V176.768C339.386 179.225 337.395 181.216 334.938 181.216Z" fill="#A2DB2F"/>
<path d="M0 214.018C0 213.314 0.570934 212.734 1.27523 212.734C31.6352 212.734 62.0073 212.734 93.2629 212.734C93.9672 212.734 94.5388 213.295 94.5388 213.999C94.5388 214.704 93.9679 215.284 93.2636 215.284C62.9036 215.284 32.5315 215.284 1.2759 215.284C0.571608 215.284 0 214.723 0 214.018Z" fill="#FDFEFE"/>
<path d="M111.919 229.486C111.249 229.486 110.784 228.82 111.014 228.191L121.414 199.864C121.631 199.274 122.193 198.881 122.822 198.881C123.454 198.881 124.017 199.276 124.232 199.87L134.499 228.165C134.733 228.807 134.257 229.486 133.573 229.486C133.158 229.486 132.787 229.225 132.646 228.834L126.194 210.904C125.04 207.695 120.504 207.689 119.341 210.895L112.824 228.852C112.686 229.232 112.324 229.486 111.919 229.486ZM116.525 219.78C115.939 219.78 115.538 219.189 115.753 218.644C115.878 218.327 116.184 218.119 116.525 218.119H129.036C129.377 218.119 129.684 218.327 129.809 218.644C130.024 219.189 129.622 219.78 129.036 219.78H116.525Z" fill="white"/>
<path d="M147.944 230.011C145.816 230.011 143.965 229.515 142.391 228.524C140.847 227.504 139.652 226.134 138.806 224.414C137.961 222.666 137.538 220.684 137.538 218.468C137.538 216.253 137.961 214.286 138.806 212.566C139.652 210.817 140.861 209.447 142.435 208.456C144.009 207.436 145.86 206.926 147.988 206.926C150.116 206.926 151.937 207.48 153.453 208.587C154.382 209.236 156.82 208.502 156.82 207.369V198.991C156.82 198.447 157.26 198.007 157.803 198.007C158.347 198.007 158.787 198.447 158.787 198.991V228.591C158.787 229.085 158.386 229.486 157.891 229.486C157.414 229.486 157.02 229.111 156.997 228.634L156.95 227.66C156.909 226.826 155.422 226.472 154.852 227.081C154.036 227.956 153.045 228.67 151.879 229.224C150.713 229.748 149.401 230.011 147.944 230.011ZM148.075 228.218C149.737 228.218 151.209 227.81 152.491 226.994C153.774 226.149 154.765 224.997 155.464 223.54C156.193 222.054 156.557 220.363 156.557 218.468C156.557 216.545 156.193 214.854 155.464 213.397C154.765 211.91 153.774 210.759 152.491 209.943C151.238 209.127 149.766 208.719 148.075 208.719C146.443 208.719 144.971 209.112 143.659 209.899C142.377 210.686 141.371 211.823 140.643 213.309C139.914 214.767 139.55 216.486 139.55 218.468C139.55 220.45 139.914 222.17 140.643 223.628C141.4 225.085 142.421 226.222 143.703 227.038C144.986 227.825 146.443 228.218 148.075 228.218Z" fill="white"/>
<path d="M172.82 229.486C172.148 229.486 171.544 229.074 171.299 228.448L163.622 208.807C163.368 208.155 163.849 207.451 164.549 207.451C164.962 207.451 165.332 207.706 165.478 208.091L169.437 218.488C170.628 221.618 175.055 221.618 176.247 218.488L180.211 208.078C180.354 207.7 180.717 207.451 181.121 207.451C181.807 207.451 182.278 208.141 182.029 208.78L174.341 228.448C174.096 229.074 173.492 229.486 172.82 229.486Z" fill="white"/>
<path d="M188.08 229.486C187.537 229.486 187.096 229.046 187.096 228.502V208.434C187.096 207.891 187.537 207.451 188.08 207.451C188.623 207.451 189.064 207.891 189.064 208.434V228.502C189.064 229.046 188.623 229.486 188.08 229.486ZM188.102 201.636C187.694 201.636 187.329 201.49 187.009 201.198C186.717 200.878 186.572 200.499 186.572 200.062C186.572 199.625 186.717 199.275 187.009 199.012C187.329 198.721 187.694 198.575 188.102 198.575C188.51 198.575 188.86 198.721 189.151 199.012C189.472 199.275 189.632 199.625 189.632 200.062C189.632 200.499 189.472 200.878 189.151 201.198C188.86 201.49 188.51 201.636 188.102 201.636Z" fill="white"/>
<path d="M203.195 230.011C201.592 230.011 200.149 229.748 198.867 229.224C197.584 228.67 196.55 227.854 195.763 226.775C195.194 225.966 194.781 225.008 194.524 223.902C194.384 223.299 194.868 222.753 195.488 222.753C196.016 222.753 196.449 223.157 196.57 223.671C196.753 224.448 197.067 225.133 197.511 225.726C198.153 226.542 198.969 227.169 199.96 227.606C200.951 228.014 202.044 228.218 203.239 228.218C204.434 228.218 205.44 228.029 206.256 227.65C207.101 227.271 207.742 226.746 208.179 226.076C208.646 225.376 208.879 224.604 208.879 223.759C208.879 222.68 208.646 221.85 208.179 221.267C207.742 220.654 207.072 220.188 206.168 219.867C205.265 219.547 204.128 219.255 202.758 218.993C201.65 218.789 200.645 218.527 199.741 218.206C198.867 217.885 198.109 217.492 197.468 217.026C196.826 216.559 196.331 215.991 195.981 215.32C195.661 214.621 195.5 213.834 195.5 212.96C195.5 211.764 195.792 210.715 196.375 209.812C196.987 208.908 197.832 208.208 198.91 207.713C199.989 207.188 201.271 206.926 202.758 206.926C204.857 206.926 206.591 207.48 207.961 208.587C209.118 209.504 209.866 210.779 210.206 212.413C210.324 212.982 209.863 213.484 209.282 213.484C208.761 213.484 208.341 213.075 208.228 212.566C208.003 211.554 207.506 210.709 206.737 210.03C205.775 209.156 204.434 208.719 202.714 208.719C201.053 208.719 199.77 209.097 198.867 209.855C197.992 210.584 197.555 211.56 197.555 212.785C197.555 213.484 197.73 214.111 198.08 214.665C198.459 215.218 199.056 215.714 199.872 216.151C200.688 216.559 201.782 216.909 203.151 217.2C204.58 217.463 205.877 217.798 207.043 218.206C208.238 218.614 209.185 219.226 209.885 220.042C210.584 220.858 210.934 222.024 210.934 223.54C210.934 224.793 210.613 225.916 209.972 226.907C209.36 227.868 208.471 228.626 207.305 229.18C206.168 229.734 204.798 230.011 203.195 230.011Z" fill="white"/>
<path d="M225.826 230.011C223.815 230.011 222.007 229.544 220.404 228.612C218.83 227.679 217.577 226.353 216.644 224.633C215.741 222.884 215.289 220.844 215.289 218.512C215.289 216.093 215.755 214.023 216.688 212.304C217.621 210.584 218.889 209.258 220.492 208.325C222.095 207.392 223.902 206.926 225.913 206.926C227.953 206.926 229.761 207.392 231.335 208.325C232.938 209.258 234.191 210.584 235.095 212.304C236.027 214.023 236.494 216.093 236.494 218.512C236.494 220.844 236.027 222.884 235.095 224.633C234.162 226.353 232.894 227.679 231.291 228.612C229.688 229.544 227.866 230.011 225.826 230.011ZM225.826 228.262C227.341 228.262 228.74 227.898 230.023 227.169C231.335 226.44 232.398 225.347 233.215 223.89C234.031 222.432 234.439 220.625 234.439 218.468C234.439 216.311 234.031 214.504 233.215 213.047C232.428 211.59 231.378 210.511 230.067 209.812C228.784 209.083 227.4 208.719 225.913 208.719C224.427 208.719 223.028 209.083 221.716 209.812C220.404 210.54 219.34 211.633 218.524 213.091C217.737 214.519 217.344 216.311 217.344 218.468C217.344 220.625 217.737 222.432 218.524 223.89C219.34 225.347 220.39 226.44 221.672 227.169C222.955 227.898 224.339 228.262 225.826 228.262Z" fill="white"/>
<path d="M242.683 229.486C242.139 229.486 241.699 229.046 241.699 228.502V208.346C241.699 207.852 242.1 207.451 242.595 207.451H242.648C243.096 207.451 243.465 207.802 243.487 208.25L243.497 208.457C243.538 209.298 244.972 209.641 245.59 209.068C246.406 208.34 247.368 207.8 248.476 207.451C249.311 207.187 250.23 207.022 251.231 206.958C251.785 206.922 252.236 207.376 252.236 207.932V208.15C252.236 208.585 251.883 208.937 251.449 208.937C250.574 208.937 249.671 209.054 248.738 209.287C247.834 209.52 246.989 209.943 246.202 210.555C245.444 211.138 244.832 211.983 244.366 213.091C243.9 214.198 243.666 215.612 243.666 217.332V228.502C243.666 229.046 243.226 229.486 242.683 229.486Z" fill="white"/>
<path d="M268.236 214.018C268.236 213.314 268.807 212.734 269.511 212.734C299.871 212.734 330.243 212.734 361.499 212.734C362.203 212.734 362.775 213.295 362.775 213.999C362.775 214.704 362.204 215.284 361.499 215.284C331.139 215.284 300.767 215.284 269.512 215.284C268.807 215.284 268.236 214.723 268.236 214.018Z" fill="#FDFEFE"/>
</svg>
